<svg id="visual" viewBox="0 0 900 600" width="900" height="600" xmlns="http://www.w3.org/2000/svg" xmlns:xlink="http://www.w3.org/1999/xlink" version="1.1"><path d="M0 7L6.5 14.8C13 22.7 26 38.3 39 44C52 49.7 65 45.3 78 38C91 30.7 104 20.3 117.2 15.5C130.3 10.7 143.7 11.3 156.8 18.2C170 25 183 38 196 38.2C209 38.3 222 25.7 235 18.3C248 11 261 9 274 16.2C287 23.3 300 39.7 313 40.3C326 41 339 26 352 17.5C365 9 378 7 391 7.7C404 8.3 417 11.7 430.2 17C443.3 22.3 456.7 29.7 469.8 27.2C483 24.7 496 12.3 509 8C522 3.7 535 7.3 548 14.3C561 21.3 574 31.7 587 29.8C600 28 613 14 626 14.2C639 14.3 652 28.7 665 35.5C678 42.3 691 41.7 704 37.7C717 33.7 730 26.3 743.2 28.8C756.3 31.3 769.7 43.7 782.8 42.7C796 41.7 809 27.3 822 22.8C835 18.3 848 23.7 861 29.8C874 36 887 43 893.5 46.5L900 50L900 0L893.5 0C887 0 874 0 861 0C848 0 835 0 822 0C809 0 796 0 782.8 0C769.7 0 756.3 0 743.2 0C730 0 717 0 704 0C691 0 678 0 665 0C652 0 639 0 626 0C613 0 600 0 587 0C574 0 561 0 548 0C535 0 522 0 509 0C496 0 483 0 469.8 0C456.7 0 443.3 0 430.2 0C417 0 404 0 391 0C378 0 365 0 352 0C339 0 326 0 313 0C300 0 287 0 274 0C261 0 248 0 235 0C222 0 209 0 196 0C183 0 170 0 156.8 0C143.7 0 130.3 0 117.2 0C104 0 91 0 78 0C65 0 52 0 39 0C26 0 13 0 6.5 0L0 0Z" fill="#fcaf3c"></path><path d="M0 1L6.5 5.8C13 10.7 26 20.3 39 22C52 23.7 65 17.3 78 14.3C91 11.3 104 11.7 117.2 11.7C130.3 11.7 143.7 11.3 156.8 14.5C170 17.7 183 24.3 196 27.8C209 31.3 222 31.7 235 30.8C248 30 261 28 274 29.8C287 31.7 300 37.3 313 35.2C326 33 339 23 352 22.2C365 21.3 378 29.7 391 31C404 32.3 417 26.7 430.2 27C443.3 27.3 456.7 33.7 469.8 37.7C483 41.7 496 43.3 509 43.5C522 43.7 535 42.3 548 35.3C561 28.3 574 15.7 587 12.2C600 8.7 613 14.3 626 17.8C639 21.3 652 22.7 665 23.5C678 24.3 691 24.7 704 22.3C717 20 730 15 743.2 11.5C756.3 8 769.7 6 782.8 11.2C796 16.3 809 28.7 822 33.8C835 39 848 37 861 37.5C874 38 887 41 893.5 42.5L900 44L900 0L893.5 0C887 0 874 0 861 0C848 0 835 0 822 0C809 0 796 0 782.8 0C769.7 0 756.3 0 743.2 0C730 0 717 0 704 0C691 0 678 0 665 0C652 0 639 0 626 0C613 0 600 0 587 0C574 0 561 0 548 0C535 0 522 0 509 0C496 0 483 0 469.8 0C456.7 0 443.3 0 430.2 0C417 0 404 0 391 0C378 0 365 0 352 0C339 0 326 0 313 0C300 0 287 0 274 0C261 0 248 0 235 0C222 0 209 0 196 0C183 0 170 0 156.8 0C143.7 0 130.3 0 117.2 0C104 0 91 0 78 0C65 0 52 0 39 0C26 0 13 0 6.5 0L0 0Z" fill="#fb9d2c"></path><path d="M0 14L6.5 12C13 10 26 6 39 6.8C52 7.7 65 13.3 78 17.2C91 21 104 23 117.2 20.2C130.3 17.3 143.7 9.7 156.8 7.8C170 6 183 10 196 14.2C209 18.3 222 22.7 235 23.2C248 23.7 261 20.3 274 15.8C287 11.3 300 5.7 313 8.3C326 11 339 22 352 26C365 30 378 27 391 25.3C404 23.7 417 23.3 430.2 23.7C443.3 24 456.7 25 469.8 26.7C483 28.3 496 30.7 509 27.8C522 25 535 17 548 16.3C561 15.7 574 22.3 587 26.3C600 30.3 613 31.7 626 28.5C639 25.3 652 17.7 665 17.7C678 17.7 691 25.3 704 28.2C717 31 730 29 743.2 25.5C756.3 22 769.7 17 782.8 13C796 9 809 6 822 8.2C835 10.3 848 17.7 861 22.8C874 28 887 31 893.5 32.5L900 34L900 0L893.5 0C887 0 874 0 861 0C848 0 835 0 822 0C809 0 796 0 782.8 0C769.7 0 756.3 0 743.2 0C730 0 717 0 704 0C691 0 678 0 665 0C652 0 639 0 626 0C613 0 600 0 587 0C574 0 561 0 548 0C535 0 522 0 509 0C496 0 483 0 469.8 0C456.7 0 443.3 0 430.2 0C417 0 404 0 391 0C378 0 365 0 352 0C339 0 326 0 313 0C300 0 287 0 274 0C261 0 248 0 235 0C222 0 209 0 196 0C183 0 170 0 156.8 0C143.7 0 130.3 0 117.2 0C104 0 91 0 78 0C65 0 52 0 39 0C26 0 13 0 6.5 0L0 0Z" fill="#f98b1d"></path><path d="M0 5L6.5 5.3C13 5.7 26 6.3 39 7.2C52 8 65 9 78 11.2C91 13.3 104 16.7 117.2 16.7C130.3 16.7 143.7 13.3 156.8 13C170 12.7 183 15.3 196 15.8C209 16.3 222 14.7 235 13.3C248 12 261 11 274 10.3C287 9.7 300 9.3 313 10.5C326 11.7 339 14.3 352 15.5C365 16.7 378 16.3 391 14.5C404 12.7 417 9.3 430.2 7.3C443.3 5.3 456.7 4.7 469.8 7C483 9.3 496 14.7 509 16.5C522 18.3 535 16.7 548 14.8C561 13 574 11 587 12C600 13 613 17 626 18.3C639 19.7 652 18.3 665 17C678 15.7 691 14.3 704 12.7C717 11 730 9 743.2 7.5C756.3 6 769.7 5 782.8 7.5C796 10 809 16 822 16.8C835 17.7 848 13.3 861 10.3C874 7.3 887 5.7 893.5 4.8L900 4L900 0L893.5 0C887 0 874 0 861 0C848 0 835 0 822 0C809 0 796 0 782.8 0C769.7 0 756.3 0 743.2 0C730 0 717 0 704 0C691 0 678 0 665 0C652 0 639 0 626 0C613 0 600 0 587 0C574 0 561 0 548 0C535 0 522 0 509 0C496 0 483 0 469.8 0C456.7 0 443.3 0 430.2 0C417 0 404 0 391 0C378 0 365 0 352 0C339 0 326 0 313 0C300 0 287 0 274 0C261 0 248 0 235 0C222 0 209 0 196 0C183 0 170 0 156.8 0C143.7 0 130.3 0 117.2 0C104 0 91 0 78 0C65 0 52 0 39 0C26 0 13 0 6.5 0L0 0Z" fill="#f7770f"></path></svg>