<?xml version="1.0" standalone="no"?>
<!DOCTYPE svg PUBLIC "-//W3C//DTD SVG 20010904//EN"
 "http://www.w3.org/TR/2001/REC-SVG-20010904/DTD/svg10.dtd">
<svg version="1.0" xmlns="http://www.w3.org/2000/svg"
 width="575.000000pt" height="360.000000pt" viewBox="0 0 575.000000 360.000000"
 preserveAspectRatio="xMidYMid meet">

<g transform="translate(0.000000,360.000000) scale(0.100000,-0.100000)"
fill="#000000" stroke="none">
<path d="M1887 3394 c-14 -15 -6 -34 14 -34 14 0 19 5 17 17 -3 18 -20 27 -31
17z"/>
<path d="M4461 3391 c-11 -7 -9 -10 10 -13 22 -3 24 -8 27 -60 l3 -57 -32 16
c-28 14 -34 14 -64 0 -84 -40 -62 -197 27 -197 17 0 40 7 50 17 17 15 18 15
18 0 0 -13 9 -17 35 -17 19 0 35 5 35 10 0 6 -6 10 -14 10 -22 0 -26 24 -26
166 l0 134 -27 0 c-16 0 -34 -4 -42 -9z m13 -136 c36 -37 30 -125 -12 -153
-19 -13 -23 -11 -47 12 -27 27 -32 66 -14 113 17 44 45 55 73 28z"/>
<path d="M2037 3353 c-5 -18 -19 -41 -33 -52 -23 -18 -23 -19 -4 -24 18 -5 20
-14 20 -84 0 -87 8 -103 51 -103 31 0 60 32 58 65 0 15 -4 12 -15 -12 -15 -35
-47 -45 -58 -17 -3 9 -6 46 -6 84 l0 69 38 4 37 4 -37 1 c-37 2 -37 2 -40 50
-3 46 -3 46 -11 15z"/>
<path d="M2197 3353 c-5 -18 -19 -41 -33 -52 -23 -18 -23 -19 -4 -24 18 -5 20
-14 20 -84 0 -87 8 -103 51 -103 31 0 60 32 58 65 0 15 -4 12 -15 -12 -15 -35
-47 -45 -58 -17 -3 9 -6 46 -6 84 l0 69 38 4 37 4 -37 1 c-37 2 -37 2 -40 50
-3 46 -3 46 -11 15z"/>
<path d="M1739 3269 l-29 -31 0 26 c0 23 -4 26 -35 26 -19 0 -35 -4 -35 -10 0
-5 9 -10 20 -10 18 0 20 -7 20 -78 0 -72 -2 -80 -22 -90 -20 -9 -14 -11 36
-11 57 -1 58 -1 36 17 -21 17 -21 21 -11 77 10 53 33 95 51 95 4 0 7 -8 6 -17
-1 -23 32 -29 41 -7 4 11 -1 22 -12 30 -27 20 -33 18 -66 -17z"/>
<path d="M2371 3286 c-48 -27 -65 -99 -36 -155 16 -32 33 -41 76 -41 38 0 65
14 80 43 l12 22 -24 -21 c-40 -36 -65 -39 -94 -10 -14 14 -25 34 -25 46 0 18
6 20 70 20 57 0 70 3 70 15 0 29 -31 76 -56 85 -33 13 -44 12 -73 -4z m81 -30
c18 -40 5 -56 -47 -56 -36 0 -45 3 -45 18 0 55 70 84 92 38z"/>
<path d="M2643 3288 c-13 -6 -23 -15 -23 -20 0 -4 -4 -8 -10 -8 -5 0 -10 7
-10 15 0 17 -55 21 -65 5 -3 -5 3 -10 14 -10 19 0 21 -6 21 -80 0 -74 -2 -81
-22 -90 -18 -7 -9 -9 37 -9 57 -1 58 0 37 15 -16 11 -22 25 -21 52 1 84 43
138 85 108 13 -10 19 -31 22 -78 4 -59 2 -67 -19 -82 -23 -16 -22 -16 36 -15
51 0 56 2 38 11 -21 10 -23 18 -23 83 0 41 -5 78 -12 88 -17 21 -58 29 -85 15z"/>
<path d="M1302 3278 c9 -7 30 -52 48 -100 18 -49 36 -88 40 -88 5 0 19 29 32
65 12 36 25 65 28 65 3 0 16 -29 28 -65 13 -36 27 -65 31 -65 4 0 22 39 40 88
18 48 40 93 49 100 13 10 9 12 -29 11 -24 -1 -36 -3 -26 -6 9 -2 17 -10 17
-17 0 -19 -31 -105 -40 -111 -4 -2 -17 21 -29 53 -19 53 -20 58 -4 70 14 10 9
12 -32 12 -44 0 -47 -1 -30 -14 19 -14 19 -15 1 -70 -11 -31 -23 -53 -27 -49
-4 4 -17 31 -28 60 -19 49 -19 53 -3 62 13 8 6 10 -32 11 -42 0 -47 -2 -34
-12z"/>
<path d="M1840 3280 c0 -5 9 -10 20 -10 18 0 20 -7 20 -80 0 -65 -3 -81 -17
-89 -14 -8 -5 -10 37 -10 42 0 51 2 38 10 -15 8 -18 25 -18 99 l0 90 -40 0
c-22 0 -40 -4 -40 -10z"/>
<path d="M3430 3277 c-28 -14 -39 -59 -19 -83 6 -8 31 -19 55 -25 48 -12 69
-31 60 -54 -15 -40 -78 -29 -106 18 l-20 32 0 -44 c0 -36 2 -42 14 -32 10 8
16 9 21 1 11 -17 80 -12 98 8 21 22 22 65 3 81 -7 6 -37 18 -65 27 -44 13 -52
18 -49 37 5 34 60 36 86 3 27 -35 32 -33 32 10 0 30 -3 34 -14 25 -10 -8 -21
-8 -40 -1 -33 12 -26 12 -56 -3z"/>
<path d="M3641 3276 c-85 -47 -57 -196 38 -196 94 0 125 151 40 195 -34 18
-47 18 -78 1z m73 -28 c35 -49 11 -158 -34 -158 -10 0 -26 10 -34 22 -18 26
-21 109 -6 139 14 26 55 24 74 -3z"/>
<path d="M4183 3278 c-13 -6 -23 -15 -23 -20 0 -4 -4 -8 -10 -8 -5 0 -10 7
-10 15 0 17 -55 21 -65 5 -3 -5 3 -10 14 -10 19 0 21 -6 21 -80 0 -74 -2 -81
-22 -90 -18 -7 -9 -9 37 -9 57 -1 58 0 37 15 -16 11 -22 25 -21 52 1 84 43
138 85 108 13 -10 19 -31 22 -78 4 -59 2 -67 -19 -82 -23 -16 -22 -16 36 -15
51 0 56 2 38 11 -21 10 -23 18 -23 83 0 41 -5 78 -12 88 -17 21 -58 29 -85 15z"/>
<path d="M4650 3277 c-28 -14 -39 -59 -19 -83 6 -8 31 -19 55 -25 48 -12 69
-31 60 -54 -15 -40 -78 -29 -106 18 l-20 32 0 -44 c0 -36 2 -42 14 -32 10 8
16 9 21 1 11 -17 80 -12 98 8 21 22 22 65 3 81 -7 6 -37 18 -65 27 -44 13 -52
18 -49 37 5 34 60 36 86 3 27 -35 32 -33 32 10 0 30 -3 34 -14 25 -10 -8 -21
-8 -40 -1 -33 12 -26 12 -56 -3z"/>
<path d="M3800 3271 c0 -5 9 -11 20 -14 18 -5 20 -14 20 -79 0 -44 5 -79 12
-86 17 -17 78 -15 100 5 17 15 18 15 18 0 0 -13 9 -17 40 -17 22 0 40 5 40 10
0 6 -9 10 -20 10 -19 0 -20 7 -20 90 l0 90 -40 0 c-22 0 -40 -4 -40 -10 0 -5
9 -10 20 -10 18 0 20 -7 20 -58 0 -66 -19 -102 -54 -102 -37 0 -46 19 -46 102
l0 78 -35 0 c-19 0 -35 -4 -35 -9z"/>
<path d="M2186 2485 c-73 -26 -130 -104 -123 -170 2 -16 -5 -21 -35 -23 -24
-2 -38 -8 -38 -17 0 -9 14 -15 38 -17 l37 -3 3 -87 3 -87 -38 -3 c-27 -2 -39
-8 -41 -20 -3 -15 4 -18 37 -18 l41 0 0 -90 0 -90 -40 0 c-54 0 -56 -27 -2
-32 l37 -3 3 -92 3 -93 -619 0 -619 0 -6 81 c-4 63 -12 95 -36 144 -17 35 -38
66 -47 69 -55 21 -126 -99 -141 -235 l-6 -59 -196 -2 c-264 -4 -263 -22 2 -26
108 -1 197 -6 197 -10 0 -4 5 -36 10 -72 8 -59 7 -67 -12 -87 -21 -22 -27 -23
-210 -23 -119 0 -188 -4 -188 -10 0 -6 65 -10 176 -10 l176 0 -57 -62 c-31
-33 -64 -76 -73 -94 l-15 -33 -101 -3 c-127 -4 -130 -22 -5 -26 81 -2 90 -5
84 -20 -4 -9 -10 -52 -13 -94 l-5 -77 -81 -3 c-107 -4 -101 -22 9 -26 l85 -3
19 -37 c25 -50 60 -85 117 -122 l48 -30 -182 0 c-115 0 -182 -4 -182 -10 0 -6
96 -10 269 -10 l269 0 11 -50 c6 -28 11 -83 11 -121 0 -67 -2 -73 -34 -105
-30 -30 -40 -34 -87 -34 l-54 0 29 15 c41 22 55 44 56 87 0 49 -33 87 -82 95
-108 17 -155 -133 -63 -202 48 -38 126 -44 189 -17 39 18 50 29 68 69 17 39
20 59 15 122 -4 42 -9 91 -13 109 l-7 32 237 0 236 0 0 -229 c0 -127 4 -232 9
-235 13 -8 100 58 128 98 36 50 42 122 13 158 -25 32 -63 37 -98 12 l-22 -15
0 105 0 106 265 0 265 0 0 -95 0 -95 -165 0 c-140 0 -165 -2 -165 -15 0 -12
15 -15 76 -15 l77 0 -42 -45 c-47 -51 -54 -96 -22 -136 16 -21 28 -24 79 -24
48 1 68 6 101 28 54 36 81 81 81 135 0 41 0 42 35 42 24 0 35 5 35 15 0 10
-11 15 -35 15 l-35 0 0 95 0 95 1249 0 c1130 0 1249 -2 1255 -16 11 -30 6
-115 -9 -144 -9 -18 -26 -32 -43 -36 -15 -3 -32 -7 -38 -9 -6 -2 -17 1 -25 6
-9 6 -10 9 -2 9 18 0 53 41 53 61 0 59 -57 101 -109 80 -59 -25 -67 -97 -17
-147 30 -30 40 -34 88 -34 103 0 142 47 135 163 l-4 67 553 0 554 0 0 445 0
445 -285 0 -285 0 0 29 c0 88 -147 94 -232 9 l-38 -38 -123 0 -122 0 -23 49
c-12 27 -28 51 -36 54 -20 8 -60 -26 -80 -68 l-17 -35 -199 0 -200 0 0 45 c0
25 -4 45 -10 45 -5 0 -10 -20 -10 -45 l0 -45 -860 0 -860 0 0 95 0 95 165 0
c140 0 165 2 165 15 0 13 -25 15 -165 15 l-165 0 0 90 0 90 165 0 c158 0 165
1 165 20 0 19 -7 20 -165 20 l-165 0 0 90 0 90 165 0 c140 0 165 2 165 15 0
12 -16 15 -80 15 l-80 0 38 38 c46 46 60 94 37 129 -28 43 -81 53 -149 28z
m124 -45 c15 -28 -21 -62 -105 -101 -71 -34 -98 -34 -103 -3 -4 26 43 68 113
100 61 29 81 30 95 4z m-1541 -661 c12 -35 14 -82 5 -116 -6 -21 -13 -23 -65
-23 -55 0 -59 2 -59 23 0 26 35 105 57 129 25 28 50 22 62 -13z m4096 -109 c0
-24 -2 -25 -80 -27 l-80 -2 60 30 c71 35 100 35 100 -1z m-4133 -87 c-11 -16
-34 -41 -51 -57 l-31 -30 0 57 0 57 51 0 50 0 -19 -27z m1336 -65 l-3 -93
-662 -3 -661 -2 39 75 c21 42 39 85 39 96 0 19 12 19 625 19 l626 0 -3 -92z
m1072 -3 l0 -96 -96 3 -96 3 -13 38 c-26 75 -86 117 -170 117 -87 0 -144 -42
-165 -121 l-11 -39 -249 0 -250 0 0 95 0 95 525 0 525 0 0 -95z m670 0 l0 -95
-315 0 -315 0 0 95 0 95 315 0 315 0 0 -95z m405 0 l0 -95 -192 0 -193 0 0 95
0 95 193 0 192 0 0 -95z m137 73 c9 -59 -45 -168 -83 -168 -16 0 -19 8 -19 60
0 33 7 76 14 95 13 30 20 35 50 35 28 0 35 -4 38 -22z m270 -73 l-3 -95 -124
0 -125 0 11 28 c6 15 12 57 12 95 l1 67 116 0 115 0 -3 -95z m188 90 c0 -8
-101 -55 -117 -55 -19 0 -43 29 -37 45 5 11 24 15 80 15 41 0 74 -2 74 -5z
m420 -90 l0 -95 -290 0 -290 0 0 55 c0 54 0 54 26 45 58 -22 136 2 189 58 l30
32 167 0 168 0 0 -95z m120 0 l0 -95 -40 0 -40 0 0 95 0 95 40 0 40 0 0 -95z
m-2551 29 c25 -18 51 -71 51 -104 0 -17 -6 -20 -50 -20 -37 0 -50 4 -50 14 0
26 -51 57 -82 51 -31 -7 -33 -3 -17 26 23 43 107 61 148 33z m-731 -241 l3
-93 -685 0 -684 0 -12 71 c-12 68 -11 71 11 95 l23 24 670 -2 671 -3 3 -92z
m532 87 c0 -20 45 -50 75 -50 30 0 75 30 75 51 0 6 22 9 53 7 l52 -3 -3 -40
c-2 -21 -13 -63 -24 -92 l-19 -53 -360 0 -359 0 0 95 0 95 255 0 c156 0 255
-4 255 -10z m540 -85 l0 -95 -125 0 c-69 0 -125 2 -125 5 0 2 9 19 20 37 11
18 25 59 31 91 l12 57 93 0 94 0 0 -95z m670 0 l0 -95 -230 0 -230 0 0 80 c0
64 -3 80 -15 80 -12 0 -15 -16 -15 -80 l0 -80 -70 0 -70 0 0 95 0 95 315 0
315 0 0 -95z m412 78 c3 -12 -22 -45 -73 -95 l-77 -78 -121 0 -121 0 0 95 0
95 194 0 c177 0 195 -2 198 -17z m398 -78 l0 -95 -169 0 -169 0 -5 33 c-3 25
2 39 24 65 16 18 36 46 44 62 l16 30 129 0 130 0 0 -95z m610 0 l0 -95 -290 0
-290 0 0 95 0 95 290 0 290 0 0 -95z m120 0 l0 -95 -40 0 -40 0 0 95 0 95 40
0 40 0 0 -95z m-4700 -22 c0 -16 3 -38 6 -50 6 -22 4 -23 -57 -23 l-63 0 49
50 c27 28 53 50 57 50 4 0 8 -12 8 -27z m3600 -58 c0 -9 -9 -15 -21 -15 -18 0
-19 2 -9 15 7 8 16 15 21 15 5 0 9 -7 9 -15z m-3660 -83 c-35 -34 -60 -91 -60
-134 0 -14 -9 -18 -41 -18 l-42 0 6 45 c4 25 18 67 32 95 l25 50 59 0 59 0
-38 -38z m1220 -57 l0 -95 -444 0 -444 0 -7 40 c-8 49 -40 98 -84 127 l-34 23
507 0 506 0 0 -95z m960 65 c-23 -33 -79 -80 -153 -128 l-48 -32 -370 0 -369
0 0 95 0 95 481 0 480 0 -21 -30z m370 -65 l0 -95 -262 0 -263 1 59 31 c32 18
88 60 125 95 l66 62 138 1 137 0 0 -95z m180 0 l0 -95 -70 0 -70 0 0 95 0 95
70 0 70 0 0 -95z m490 39 c0 -50 -2 -55 -17 -49 -64 28 -147 8 -203 -50 -25
-26 -42 -35 -67 -35 -32 0 -33 1 -33 40 0 69 -62 103 -118 64 -22 -15 -22 -15
-22 35 l0 51 230 0 230 0 0 -56z m234 14 c-8 -24 -15 -66 -16 -95 l-2 -53 -98
0 -98 0 0 95 0 95 115 0 114 0 -15 -42z m216 29 c0 -7 -14 -23 -31 -36 -39
-29 -69 -78 -69 -113 0 -25 -3 -28 -35 -28 -27 0 -35 4 -35 19 0 30 22 84 52
129 27 39 32 42 73 42 31 0 45 -4 45 -13z m360 -82 l0 -95 -75 0 c-73 0 -75 1
-81 28 -17 71 -86 132 -149 132 -16 0 -25 6 -25 15 0 13 25 15 165 15 l165 0
0 -95z m610 0 l0 -95 -290 0 -290 0 0 95 0 95 290 0 290 0 0 -95z m120 0 l0
-95 -40 0 -40 0 0 95 0 95 40 0 40 0 0 -95z m-4576 -9 c31 -13 76 -59 76 -77
0 -5 -25 -9 -55 -9 -59 0 -59 0 -70 63 -7 42 -1 44 49 23z m-89 -23 c14 -67
17 -63 -40 -63 -48 0 -53 2 -48 20 6 21 57 70 74 70 5 0 11 -12 14 -27z m2733
5 c7 -7 12 -25 12 -40 0 -26 -3 -28 -40 -28 -38 0 -40 2 -40 30 0 41 42 64 68
38z m967 -25 c35 -36 32 -43 -19 -43 -45 0 -55 12 -56 61 0 24 44 13 75 -18z
m-105 8 c0 -11 3 -26 6 -35 5 -13 -2 -16 -35 -16 -49 0 -54 18 -15 49 33 26
44 26 44 2z m-491 -5 c6 -7 9 -21 5 -30 -5 -13 -21 -16 -80 -16 -41 0 -74 2
-74 5 0 9 103 55 121 55 9 0 22 -6 28 -14z m-3244 -95 c8 -28 72 -81 95 -81
27 0 25 16 -3 35 -13 8 -29 27 -35 41 l-12 25 57 -3 57 -3 13 -75 c15 -87 10
-93 -57 -85 -67 9 -131 44 -167 93 -44 58 -43 72 6 72 30 0 41 -5 46 -19z
m305 -7 c0 -36 -27 -90 -55 -108 -28 -19 -30 -16 -39 49 -4 28 -9 58 -12 68
-5 15 2 17 50 17 54 0 56 -1 56 -26z m960 -69 l0 -95 -264 0 -265 0 -3 27 c-4
36 -26 41 -30 6 l-3 -28 -234 -3 -234 -2 38 25 c51 35 72 61 92 118 l18 47
442 0 443 0 0 -95z m1330 0 l0 -95 -655 0 -655 0 0 95 0 95 655 0 655 0 0 -95z
m180 30 c0 -53 3 -65 16 -65 25 0 103 60 125 97 17 27 27 33 55 33 27 0 34 -4
34 -19 0 -47 41 -81 97 -81 39 0 126 43 150 74 20 25 24 26 129 26 l109 0 23
-40 c42 -73 152 -130 232 -118 21 3 30 0 33 -14 5 -17 -19 -18 -569 -18 l-574
0 0 95 0 95 70 0 70 0 0 -65z m100 55 c0 -6 -16 -27 -35 -48 l-34 -37 -1 48 0
47 35 0 c19 0 35 -5 35 -10z m265 -21 c-33 -16 -65 -29 -71 -29 -18 0 -37 28
-30 45 4 12 22 15 83 14 l78 -1 -60 -29z m494 0 c23 -31 59 -51 75 -42 4 3 -4
16 -18 30 -14 13 -26 28 -26 33 0 12 77 14 83 3 3 -5 8 -34 12 -65 l7 -58 -39
0 c-52 0 -123 37 -150 79 -30 44 -29 51 5 51 20 0 35 -9 51 -31z m231 9 c0
-30 -36 -88 -54 -88 -8 0 -16 15 -20 38 -11 69 -10 72 34 72 35 0 40 -3 40
-22z m210 -23 c0 -33 4 -45 15 -45 11 0 15 12 15 45 l0 45 290 0 290 0 0 -95
0 -95 -437 2 -438 3 -3 23 c-2 12 1 22 7 22 21 0 79 62 95 100 l16 40 75 0 75
0 0 -45z m730 -50 l0 -95 -40 0 -40 0 0 95 0 95 40 0 40 0 0 -95z m-4002 -347
c29 -29 5 -123 -44 -169 l-24 -22 0 91 c0 76 3 93 18 101 23 14 36 13 50 -1z
m442 -23 c10 -12 9 -20 -4 -39 -21 -33 -157 -100 -185 -91 -50 16 -4 76 94
121 58 28 78 30 95 9z"/>
<path d="M2981 1512 c-7 -14 -6 -24 4 -38 18 -25 50 -7 50 27 0 31 -39 39 -54
11z"/>
<path d="M2981 1341 c-13 -24 9 -57 33 -48 23 9 31 34 16 52 -17 20 -37 19
-49 -4z"/>
</g>
</svg>
