<?xml version="1.0" standalone="no"?>
<!DOCTYPE svg PUBLIC "-//W3C//DTD SVG 20010904//EN"
 "http://www.w3.org/TR/2001/REC-SVG-20010904/DTD/svg10.dtd">
<svg version="1.0" xmlns="http://www.w3.org/2000/svg"
 width="663.000000pt" height="367.000000pt" viewBox="0 0 663.000000 367.000000"
 preserveAspectRatio="xMidYMid meet">

<g transform="translate(0.000000,367.000000) scale(0.100000,-0.100000)"
fill="#000000" stroke="none">
<path d="M2031 3456 c-16 -19 -6 -36 20 -36 15 0 20 6 17 22 -4 27 -21 33 -37
14z"/>
<path d="M5035 3461 c-19 -8 -18 -9 5 -12 24 -4 25 -8 28 -72 l3 -69 -23 16
c-33 24 -81 20 -106 -7 -70 -75 -35 -207 54 -207 21 0 46 7 56 17 17 15 18 15
18 0 0 -13 9 -17 40 -17 42 0 54 14 20 23 -19 5 -20 14 -20 171 l0 166 -27 -1
c-16 0 -37 -4 -48 -8z m9 -160 c40 -44 27 -155 -20 -167 -33 -8 -53 1 -64 31
-36 95 28 198 84 136z"/>
<path d="M2202 3408 c-7 -21 -25 -46 -40 -57 -26 -20 -26 -20 -4 -21 21 0 22
-4 22 -86 0 -107 8 -124 60 -124 44 0 70 26 70 69 0 28 -16 18 -22 -13 -5 -28
-33 -43 -52 -27 -12 10 -16 33 -16 97 l0 84 35 0 c19 0 35 5 35 10 0 6 -16 10
-34 10 -34 0 -35 1 -38 48 l-3 47 -13 -37z"/>
<path d="M2382 3408 c-7 -21 -25 -46 -40 -57 -26 -20 -26 -20 -4 -21 21 0 22
-4 22 -86 0 -107 8 -124 60 -124 44 0 70 26 70 69 0 28 -16 18 -22 -13 -5 -28
-33 -43 -52 -27 -12 10 -16 33 -16 97 l0 84 35 0 c19 0 35 5 35 10 0 6 -16 10
-34 10 -34 0 -35 1 -38 48 l-3 47 -13 -37z"/>
<path d="M1360 3344 c0 -3 8 -13 19 -22 10 -10 34 -59 52 -110 18 -51 38 -91
44 -89 5 2 21 34 35 70 13 37 27 67 31 67 4 0 18 -30 32 -67 13 -37 28 -68 33
-70 5 -2 27 42 48 98 21 55 45 103 52 106 27 10 13 23 -25 23 -43 0 -63 -15
-31 -23 21 -5 21 -2 -11 -99 -7 -21 -15 -38 -19 -38 -8 0 -50 105 -50 126 0 8
7 14 15 14 8 0 15 5 15 10 0 6 -22 10 -49 10 -28 0 -53 -4 -56 -10 -3 -5 1
-10 10 -10 8 0 18 -7 21 -15 6 -14 -21 -101 -36 -118 -4 -5 -19 20 -33 55 -22
54 -24 65 -11 74 24 19 16 24 -36 24 -27 0 -50 -3 -50 -6z"/>
<path d="M1856 3318 l-26 -33 0 28 c0 25 -3 27 -40 27 -22 0 -40 -4 -40 -10 0
-5 9 -10 20 -10 19 0 20 -7 20 -90 0 -73 -3 -90 -15 -90 -8 0 -15 -4 -15 -10
0 -6 27 -10 60 -10 65 0 74 5 34 20 -25 10 -26 13 -19 63 7 58 33 119 53 125
7 2 12 -5 12 -18 0 -16 5 -21 23 -18 16 2 22 10 22 28 0 21 -5 26 -31 28 -26
3 -37 -3 -58 -30z"/>
<path d="M2023 3342 c-46 -3 -58 -18 -20 -24 20 -3 22 -9 25 -86 3 -77 1 -84
-18 -89 -40 -11 -19 -23 40 -23 33 0 60 4 60 10 0 6 -9 10 -20 10 -18 0 -20 8
-22 103 l-3 102 -42 -3z"/>
<path d="M2572 3334 c-66 -46 -67 -169 -3 -204 51 -27 151 4 151 47 0 12 -7 9
-25 -11 -47 -51 -125 -25 -125 41 0 22 4 23 75 23 l75 0 0 31 c0 68 -91 113
-148 73z m81 -7 c10 -6 19 -26 20 -42 2 -29 1 -30 -50 -33 -47 -3 -53 -1 -53
16 0 23 37 72 54 72 7 0 20 -6 29 -13z"/>
<path d="M2866 3335 c-11 -8 -16 -18 -13 -22 4 -4 13 -1 19 5 19 19 45 14 62
-10 11 -15 16 -46 16 -95 0 -66 -2 -73 -20 -73 -11 0 -20 -4 -20 -10 0 -6 27
-10 60 -10 33 0 60 4 60 10 0 6 -9 10 -20 10 -18 0 -20 7 -20 79 0 64 -4 83
-21 105 -23 30 -71 35 -103 11z"/>
<path d="M2760 3330 c0 -5 7 -10 15 -10 12 0 15 -17 15 -90 0 -73 -3 -90 -15
-90 -8 0 -15 -4 -15 -10 0 -5 25 -10 55 -10 30 0 55 5 55 10 0 6 -7 10 -16 10
-13 0 -15 13 -14 83 3 124 5 117 -40 117 -22 0 -40 -4 -40 -10z"/>
<path d="M3850 3320 c-25 -25 -26 -62 -2 -83 9 -8 42 -24 72 -34 59 -19 72
-39 45 -67 -34 -33 -84 -13 -122 50 -10 16 -12 13 -12 -28 -1 -45 11 -64 22
-35 4 10 7 10 18 0 7 -7 32 -13 54 -13 50 0 75 23 75 67 0 36 -25 61 -71 69
-49 10 -69 22 -69 44 0 49 70 45 108 -7 l21 -28 1 40 0 40 -60 3 c-49 2 -64
-2 -80 -18z"/>
<path d="M4081 3314 c-52 -43 -54 -129 -4 -178 53 -53 146 -22 162 54 24 114
-76 193 -158 124z m95 -5 c14 -16 19 -36 19 -84 0 -48 -5 -68 -19 -84 -45 -50
-86 -9 -86 86 0 50 4 67 20 83 26 26 42 25 66 -1z"/>
<path d="M4696 3325 c-11 -8 -16 -18 -13 -22 4 -4 13 -1 19 5 19 19 45 14 62
-10 11 -15 16 -46 16 -95 0 -66 -2 -73 -20 -73 -11 0 -20 -4 -20 -10 0 -6 27
-10 60 -10 33 0 60 4 60 10 0 6 -9 10 -20 10 -18 0 -20 7 -20 79 0 64 -4 83
-21 105 -23 30 -71 35 -103 11z"/>
<path d="M5210 3320 c-25 -25 -26 -62 -2 -83 9 -8 42 -24 72 -34 59 -19 72
-39 45 -67 -34 -33 -84 -13 -122 50 -10 16 -12 13 -12 -28 -1 -45 11 -64 22
-35 4 10 7 10 18 0 7 -7 32 -13 54 -13 50 0 75 23 75 67 0 36 -25 61 -71 69
-49 10 -69 22 -69 44 0 49 70 45 108 -7 l21 -28 1 40 0 40 -60 3 c-49 2 -64
-2 -80 -18z"/>
<path d="M4280 3320 c0 -5 9 -10 20 -10 18 0 20 -7 20 -78 0 -99 14 -122 72
-122 25 0 49 7 60 17 17 15 18 15 18 0 0 -13 10 -17 45 -17 25 0 45 5 45 10 0
6 -9 10 -20 10 -19 0 -20 7 -20 100 l0 100 -45 0 c-25 0 -45 -4 -45 -10 0 -5
9 -10 20 -10 18 0 20 -7 20 -70 0 -75 -19 -110 -59 -110 -40 0 -51 26 -51 116
l0 84 -40 0 c-22 0 -40 -4 -40 -10z"/>
<path d="M4590 3320 c0 -5 7 -10 15 -10 12 0 15 -17 15 -90 0 -73 -3 -90 -15
-90 -8 0 -15 -4 -15 -10 0 -5 25 -10 55 -10 30 0 55 5 55 10 0 6 -7 10 -16 10
-13 0 -15 13 -14 83 3 124 5 117 -40 117 -22 0 -40 -4 -40 -10z"/>
<path d="M5207 2973 c-18 -17 0 -23 73 -23 64 0 80 3 80 15 0 12 -15 15 -73
15 -41 0 -77 -3 -80 -7z"/>
<path d="M5447 2973 c-17 -17 -2 -23 58 -23 l65 0 0 -115 c0 -96 3 -115 15
-115 13 0 15 21 15 130 l0 130 -73 0 c-41 0 -77 -3 -80 -7z"/>
<path d="M4889 2947 c-60 -40 -76 -103 -39 -150 20 -25 20 -26 1 -32 -30 -9
-71 -63 -71 -94 0 -80 115 -115 212 -65 60 31 74 120 27 170 l-21 22 30 16
c40 20 54 64 36 111 -18 46 -120 59 -175 22z m109 -19 c19 -19 15 -82 -6 -102
-18 -15 -21 -15 -53 7 -60 40 -47 107 21 107 14 0 31 -5 38 -12z m-61 -198
c77 -47 36 -138 -52 -116 -46 12 -55 76 -17 119 19 22 30 21 69 -3z"/>
<path d="M2273 2844 c-8 -21 2 -582 11 -591 11 -11 59 20 112 72 62 62 84 123
65 185 -6 22 -20 44 -31 50 -27 15 -72 12 -98 -6 l-22 -15 0 160 c0 138 -2
161 -15 161 -9 0 -18 -7 -22 -16z m115 -336 c33 -33 -3 -149 -58 -188 l-33
-23 8 99 c4 54 12 105 17 112 13 15 50 16 66 0z"/>
<path d="M4670 2436 c0 -254 2 -306 14 -306 26 0 110 65 140 107 23 33 31 57
34 102 4 54 2 62 -21 85 -30 29 -59 33 -101 11 -15 -8 -31 -15 -33 -15 -3 0
-4 71 -2 157 4 144 2 158 -13 161 -17 3 -18 -16 -18 -302z m120 -61 c17 -43
-6 -117 -48 -160 l-37 -37 -3 92 c-2 76 0 96 14 111 25 28 62 24 74 -6z"/>
<path d="M2743 2534 c-23 -8 -60 -33 -82 -55 -35 -34 -47 -39 -86 -39 -38 0
-45 -3 -45 -20 0 -17 7 -20 40 -20 l40 0 0 -100 0 -100 -40 0 c-33 0 -40 -3
-40 -20 0 -17 7 -20 40 -20 l40 0 0 -105 0 -105 -40 0 c-33 0 -40 -3 -40 -20
0 -17 7 -20 40 -20 l40 0 0 -105 0 -105 -885 0 -885 0 0 53 c0 101 -42 229
-88 270 -60 54 -153 -82 -170 -247 l-7 -71 -222 -3 c-137 -1 -223 -6 -223 -12
0 -6 84 -10 223 -10 l224 0 11 -87 c10 -83 9 -89 -11 -110 -20 -22 -25 -23
-235 -23 -166 0 -213 -3 -210 -12 4 -10 54 -14 197 -16 l193 -2 -63 -68 c-35
-37 -73 -84 -84 -104 l-19 -37 -110 -3 c-76 -2 -111 -7 -114 -15 -3 -10 22
-13 103 -13 98 0 107 -1 100 -17 -5 -10 -10 -60 -13 -110 l-4 -93 -94 0 c-56
0 -94 -4 -94 -10 0 -6 40 -10 99 -10 l99 0 13 -31 c24 -58 84 -123 145 -156
l59 -32 -208 -1 c-162 0 -208 -3 -205 -12 4 -10 76 -14 305 -16 l300 -2 12
-70 c31 -190 -7 -270 -128 -270 l-56 0 33 17 c99 48 64 203 -44 203 -75 0
-114 -43 -114 -125 0 -81 71 -137 174 -138 86 -1 141 29 168 91 18 40 20 58
14 142 -3 52 -9 107 -12 122 l-6 28 259 0 260 0 6 -137 c4 -75 7 -189 7 -254
0 -65 4 -120 9 -123 15 -10 104 59 139 107 69 95 49 207 -37 207 -20 0 -47 -7
-59 -16 l-22 -15 0 115 0 116 295 0 295 0 0 -105 0 -105 -185 0 c-158 0 -185
-2 -185 -15 0 -12 17 -15 90 -15 l89 0 -43 -44 c-49 -48 -64 -93 -46 -135 30
-75 158 -72 249 5 40 34 61 79 61 134 l0 40 40 0 c29 0 40 4 40 15 0 11 -11
15 -40 15 l-40 0 0 105 0 105 2140 0 2140 0 0 503 0 502 -605 -3 -605 -4 0
106 0 106 185 0 c178 0 185 1 185 20 0 19 -7 20 -185 20 l-185 0 0 105 0 105
185 0 c178 0 185 1 185 20 0 18 -7 20 -86 20 l-86 0 32 26 c116 98 56 224 -91
193 -96 -21 -163 -94 -161 -176 l0 -43 -39 0 c-32 0 -39 -4 -39 -19 0 -16 8
-20 38 -23 l37 -3 0 -100 0 -100 -37 -3 c-30 -3 -38 -7 -38 -23 0 -16 7 -19
40 -19 l41 0 -3 -102 -3 -103 -325 0 -325 0 -3 83 c-4 108 -22 106 -22 -3 l0
-85 -847 3 -848 2 -3 102 -3 103 188 2 c169 3 188 5 191 20 3 16 -13 18 -185
20 l-188 3 0 100 0 100 188 3 c172 2 188 4 185 20 -3 15 -22 17 -191 20 l-187
2 0 60 0 59 28 -15 c59 -30 142 -10 212 53 42 38 54 43 94 43 39 0 46 3 46 20
0 17 -7 20 -43 20 -39 0 -43 2 -45 27 -5 66 -92 99 -179 67z m145 -62 c4 -29
-10 -34 -99 -30 l-74 3 55 28 c67 33 113 33 118 -1z m-68 -77 c0 -11 -105 -55
-131 -55 -31 0 -52 21 -43 44 5 13 22 16 90 16 46 0 84 -2 84 -5z m2460 -30
c19 -23 -13 -62 -85 -104 -68 -41 -147 -50 -153 -18 -5 25 51 74 123 108 68
33 97 36 115 14z m-4514 -500 c16 -40 18 -102 4 -139 -9 -24 -14 -26 -76 -26
l-66 0 7 38 c12 69 71 162 102 162 8 0 21 -16 29 -35z m-25 -202 c-5 -10 -28
-40 -52 -67 -37 -42 -44 -46 -50 -30 -4 11 -8 40 -8 67 l-1 47 60 0 c55 0 60
-2 51 -17z m1869 -93 l0 -110 -935 0 c-514 0 -935 2 -935 5 0 3 11 23 24 44
14 21 35 68 48 105 l23 66 887 0 888 0 0 -110z m970 0 l0 -110 -475 0 -475 0
0 103 c0 57 3 107 7 110 3 4 217 7 475 7 l468 0 0 -110z m750 0 l0 -110 -255
0 -255 0 0 30 c0 23 -4 30 -20 30 -16 0 -20 -7 -20 -30 l0 -30 -80 0 -80 0 0
110 0 110 355 0 355 0 0 -110z m678 -2 l3 -108 -331 0 -330 0 0 103 c0 57 3
107 7 110 4 4 151 6 327 5 l321 -3 3 -107z m962 2 l0 -110 -470 0 -470 0 0
110 0 110 470 0 470 0 0 -110z m140 0 l0 -110 -45 0 -45 0 0 110 0 110 45 0
45 0 0 -110z m-3500 -245 l0 -105 -959 0 -959 0 -11 63 c-15 87 -14 97 11 124
l21 23 949 0 948 0 0 -105z m970 0 l0 -105 -475 0 -475 0 0 105 0 105 475 0
475 0 0 -105z m200 0 l0 -105 -80 0 -80 0 0 105 0 105 80 0 80 0 0 -105z m550
-1 l0 -106 -257 4 -258 3 3 102 3 103 255 0 254 0 0 -106z m680 1 l0 -105
-330 0 -330 0 0 105 0 105 330 0 330 0 0 -105z m960 0 l0 -105 -470 0 -470 0
0 105 0 105 470 0 470 0 0 -105z m140 0 l0 -105 -45 0 -45 0 0 105 0 105 45 0
45 0 0 -105z m-5471 -72 l1 -33 -66 0 c-76 0 -76 2 6 76 l45 42 6 -27 c4 -14
7 -41 8 -58z m-60 -90 c-38 -32 -79 -115 -79 -161 0 -33 0 -33 -42 -30 l-43 3
1 50 c1 46 27 116 56 153 7 7 35 12 75 12 l65 0 -33 -27z m1351 -83 l0 -110
-494 0 -494 0 -7 37 c-13 70 -61 139 -120 171 -15 9 128 11 548 12 l567 0 0
-110z m1648 3 l-3 -108 -807 -3 -808 -2 0 110 0 110 810 0 811 0 -3 -107z
m202 -3 l0 -111 -77 3 -78 3 -3 108 -3 107 81 0 80 0 0 -110z m114 94 c30 -30
11 -121 -36 -171 -39 -42 -48 -31 -48 60 0 87 3 97 35 115 27 15 31 15 49 -4z
m209 -19 c-60 -51 -76 -104 -48 -167 6 -16 -1 -18 -75 -18 l-81 0 31 44 c35
48 54 113 44 151 l-6 25 88 0 88 0 -41 -35z m1867 -75 l0 -110 -862 0 -863 1
38 31 c50 40 70 81 68 140 l-1 48 810 0 810 0 0 -110z m138 3 l-3 -108 -42 -3
-43 -3 0 110 0 111 45 0 46 0 -3 -107z m-1790 54 c5 -25 -48 -71 -123 -108
-67 -33 -101 -35 -119 -7 -8 14 -5 23 19 48 68 71 214 115 223 67z m-3512 -82
c26 -17 57 -69 47 -79 -4 -3 -30 -6 -60 -6 -47 0 -55 3 -62 23 -8 21 -15 71
-12 89 1 9 59 -8 87 -27z m-132 -6 c15 -74 12 -79 -49 -79 -59 0 -65 7 -41 48
11 21 62 62 77 62 4 0 9 -14 13 -31z m-160 -122 c7 -30 63 -86 92 -93 44 -11
46 7 5 45 -60 55 -55 71 19 71 67 0 60 9 80 -104 15 -89 17 -86 -43 -86 -63 0
-110 12 -151 41 -38 25 -82 85 -91 122 -7 26 -6 27 38 27 38 0 46 -3 51 -23z
m346 -6 c0 -16 -5 -42 -11 -58 -12 -32 -57 -83 -74 -83 -7 0 -17 30 -24 69
-17 106 -20 101 49 101 60 0 60 0 60 -29z m1070 -81 l0 -110 -295 0 -295 0 0
30 c0 23 -4 30 -20 30 -16 0 -20 -7 -20 -30 l0 -30 -262 0 -262 0 47 29 c52
34 90 87 107 149 l11 42 494 0 495 0 0 -110z m1650 0 l0 -110 -810 0 -810 0 0
110 0 110 810 0 810 0 0 -110z m200 96 c0 -26 19 -28 54 -7 33 21 39 21 1085
21 l1051 0 0 -110 0 -110 -1175 0 -1175 0 0 110 0 110 80 0 c63 0 80 -3 80
-14z m2330 -96 l0 -110 -45 0 -45 0 0 110 0 110 45 0 45 0 0 -110z m-4695
-393 c38 -29 1 -160 -57 -196 -17 -10 -18 -5 -18 83 0 87 2 96 22 110 27 19
29 19 53 3z m505 -46 c0 -26 -52 -68 -127 -103 -77 -37 -108 -35 -108 6 0 24
9 36 47 63 93 67 188 84 188 34z"/>
</g>
</svg>
