<?xml version="1.0" standalone="no"?>
<!DOCTYPE svg PUBLIC "-//W3C//DTD SVG 20010904//EN"
 "http://www.w3.org/TR/2001/REC-SVG-20010904/DTD/svg10.dtd">
<svg version="1.0" xmlns="http://www.w3.org/2000/svg"
 width="648.000000pt" height="429.000000pt" viewBox="0 0 648.000000 429.000000"
 preserveAspectRatio="xMidYMid meet">

<g transform="translate(0.000000,429.000000) scale(0.100000,-0.100000)"
fill="#000000" stroke="none">
<path d="M2027 3864 c-14 -15 -6 -34 14 -34 14 0 19 5 17 17 -3 18 -20 27 -31
17z"/>
<path d="M5021 3861 c-11 -7 -9 -10 10 -13 22 -3 24 -8 27 -60 l3 -57 -32 16
c-28 14 -34 14 -64 0 -84 -40 -62 -197 27 -197 17 0 40 7 50 17 17 15 18 15
18 0 0 -13 9 -17 35 -17 19 0 35 5 35 10 0 6 -6 10 -14 10 -22 0 -26 24 -26
166 l0 134 -27 0 c-16 0 -34 -4 -42 -9z m13 -136 c36 -37 30 -125 -12 -153
-19 -13 -23 -11 -47 12 -27 27 -32 66 -14 113 17 44 45 55 73 28z"/>
<path d="M2177 3823 c-5 -18 -19 -41 -33 -52 -23 -18 -23 -19 -4 -24 18 -5 20
-14 20 -84 0 -87 8 -103 51 -103 31 0 60 32 58 65 0 15 -4 12 -15 -12 -15 -35
-47 -45 -58 -17 -3 9 -6 46 -6 84 l0 69 38 4 37 4 -37 1 c-37 2 -37 2 -40 50
-3 46 -3 46 -11 15z"/>
<path d="M2347 3823 c-5 -18 -19 -41 -33 -52 -23 -18 -23 -19 -4 -24 18 -5 20
-14 20 -84 0 -87 8 -103 51 -103 31 0 60 32 58 65 0 15 -4 12 -15 -12 -15 -35
-47 -45 -58 -17 -3 9 -6 46 -6 84 l0 69 38 4 37 4 -37 1 c-37 2 -37 2 -40 50
-3 46 -3 46 -11 15z"/>
<path d="M1879 3739 l-29 -31 0 26 c0 23 -4 26 -35 26 -19 0 -35 -4 -35 -10 0
-5 9 -10 20 -10 18 0 20 -7 20 -78 0 -72 -2 -80 -22 -90 -20 -9 -14 -11 36
-11 57 -1 58 -1 36 17 -21 17 -21 21 -11 77 10 53 33 95 51 95 4 0 7 -8 6 -17
-1 -23 32 -29 41 -7 4 11 -1 22 -12 30 -27 20 -33 18 -66 -17z"/>
<path d="M2511 3756 c-48 -27 -65 -99 -36 -155 16 -32 33 -41 76 -41 38 0 65
14 80 43 l12 22 -24 -21 c-40 -36 -65 -39 -94 -10 -14 14 -25 34 -25 46 0 18
6 20 70 20 57 0 70 3 70 15 0 29 -31 76 -56 85 -33 13 -44 12 -73 -4z m81 -30
c18 -40 5 -56 -47 -56 -36 0 -45 3 -45 18 0 55 70 84 92 38z"/>
<path d="M2783 3758 c-13 -6 -23 -15 -23 -20 0 -4 -4 -8 -10 -8 -5 0 -10 7
-10 15 0 17 -55 21 -65 5 -3 -5 3 -10 14 -10 19 0 21 -6 21 -80 0 -74 -2 -81
-22 -90 -18 -7 -9 -9 37 -9 57 -1 58 0 37 15 -16 11 -22 25 -21 52 1 84 43
138 85 108 13 -10 19 -31 22 -78 4 -59 2 -67 -19 -82 -23 -16 -22 -16 36 -15
51 0 56 2 38 11 -21 10 -23 18 -23 83 0 41 -5 78 -12 88 -17 21 -58 29 -85 15z"/>
<path d="M1442 3748 c9 -7 30 -52 48 -100 18 -49 36 -88 40 -88 5 0 19 29 32
65 12 36 25 65 28 65 3 0 16 -29 28 -65 13 -36 27 -65 31 -65 4 0 22 39 40 88
18 48 40 93 49 100 13 10 9 12 -29 11 -24 -1 -36 -3 -26 -6 9 -2 17 -10 17
-17 0 -19 -31 -105 -40 -111 -4 -2 -17 21 -29 53 -19 53 -20 58 -4 70 14 10 9
12 -32 12 -44 0 -47 -1 -30 -14 19 -14 19 -15 1 -70 -11 -31 -23 -53 -27 -49
-4 4 -17 31 -28 60 -19 49 -19 53 -3 62 13 8 6 10 -32 11 -42 0 -47 -2 -34
-12z"/>
<path d="M1980 3750 c0 -5 9 -10 20 -10 18 0 20 -7 20 -80 0 -65 -3 -81 -17
-89 -14 -8 -5 -10 37 -10 42 0 51 2 38 10 -15 8 -18 25 -18 99 l0 90 -40 0
c-22 0 -40 -4 -40 -10z"/>
<path d="M3990 3747 c-28 -14 -39 -59 -19 -83 6 -8 31 -19 55 -25 48 -12 69
-31 60 -54 -15 -40 -78 -29 -106 18 l-20 32 0 -44 c0 -36 2 -42 14 -32 10 8
16 9 21 1 11 -17 80 -12 98 8 21 22 22 65 3 81 -7 6 -37 18 -65 27 -44 13 -52
18 -49 37 5 34 60 36 86 3 27 -35 32 -33 32 10 0 30 -3 34 -14 25 -10 -8 -21
-8 -40 -1 -33 12 -26 12 -56 -3z"/>
<path d="M4201 3746 c-85 -47 -57 -196 38 -196 94 0 125 151 40 195 -34 18
-47 18 -78 1z m73 -28 c35 -49 11 -158 -34 -158 -10 0 -26 10 -34 22 -18 26
-21 109 -6 139 14 26 55 24 74 -3z"/>
<path d="M4743 3748 c-13 -6 -23 -15 -23 -20 0 -4 -4 -8 -10 -8 -5 0 -10 7
-10 15 0 17 -55 21 -65 5 -3 -5 3 -10 14 -10 19 0 21 -6 21 -80 0 -74 -2 -81
-22 -90 -18 -7 -9 -9 37 -9 57 -1 58 0 37 15 -16 11 -22 25 -21 52 1 84 43
138 85 108 13 -10 19 -31 22 -78 4 -59 2 -67 -19 -82 -23 -16 -22 -16 36 -15
51 0 56 2 38 11 -21 10 -23 18 -23 83 0 41 -5 78 -12 88 -17 21 -58 29 -85 15z"/>
<path d="M5200 3747 c-28 -14 -39 -59 -19 -83 6 -8 31 -19 55 -25 48 -12 69
-31 60 -54 -15 -40 -78 -29 -106 18 l-20 32 0 -44 c0 -36 2 -42 14 -32 10 8
16 9 21 1 11 -17 80 -12 98 8 21 22 22 65 3 81 -7 6 -37 18 -65 27 -44 13 -52
18 -49 37 5 34 60 36 86 3 27 -35 32 -33 32 10 0 30 -3 34 -14 25 -10 -8 -21
-8 -40 -1 -33 12 -26 12 -56 -3z"/>
<path d="M4360 3741 c0 -5 9 -11 20 -14 18 -5 20 -14 20 -79 0 -44 5 -79 12
-86 17 -17 78 -15 100 5 17 15 18 15 18 0 0 -13 9 -17 40 -17 22 0 40 5 40 10
0 6 -9 10 -20 10 -19 0 -20 7 -20 90 l0 90 -40 0 c-22 0 -40 -4 -40 -10 0 -5
9 -10 20 -10 18 0 20 -7 20 -58 0 -66 -19 -102 -54 -102 -37 0 -46 19 -46 102
l0 78 -35 0 c-19 0 -35 -4 -35 -9z"/>
<path d="M2681 2955 c-75 -23 -131 -92 -131 -160 0 -33 -2 -35 -35 -35 -24 0
-35 -5 -35 -15 0 -10 11 -15 35 -15 l35 0 0 -95 0 -95 -35 0 c-24 0 -35 -5
-35 -15 0 -10 11 -15 35 -15 l35 0 0 -90 0 -90 -35 0 c-28 0 -35 -4 -35 -20 0
-16 7 -20 35 -20 l35 0 0 -90 0 -90 -790 0 -790 0 0 58 c0 92 -47 221 -85 236
-22 8 -85 -52 -107 -100 -10 -23 -23 -76 -29 -118 l-11 -76 -194 0 c-166 0
-194 -2 -194 -15 0 -13 28 -15 194 -15 220 0 199 9 211 -93 11 -96 9 -97 -217
-97 -119 0 -188 -4 -188 -10 0 -6 63 -10 170 -10 94 0 170 -4 170 -8 0 -4 -19
-26 -41 -47 -23 -22 -57 -64 -76 -92 l-34 -53 -94 0 c-57 0 -95 -4 -95 -10 0
-6 37 -10 91 -10 90 0 91 0 84 -22 -3 -13 -9 -56 -12 -95 l-6 -73 -78 0 c-64
0 -79 -3 -79 -15 0 -12 16 -15 85 -15 l85 0 20 -40 c25 -49 79 -104 128 -129
l37 -20 -177 -1 c-112 0 -178 -4 -178 -10 0 -6 95 -10 264 -10 217 0 265 -2
269 -14 3 -8 11 -50 17 -93 13 -89 4 -148 -29 -177 -26 -24 -97 -39 -119 -26
-16 9 -16 9 0 10 26 0 58 49 58 87 0 48 -16 72 -57 89 -71 30 -133 -16 -133
-100 0 -84 70 -133 177 -124 62 5 100 29 126 79 16 29 18 49 13 129 -3 52 -9
105 -12 118 l-6 22 236 0 236 0 0 -229 c0 -156 4 -232 11 -237 15 -9 85 42
122 89 24 29 32 49 35 96 4 54 2 59 -23 79 -33 26 -46 27 -86 7 l-30 -16 3
103 3 103 263 3 262 2 0 -95 0 -95 -165 0 c-158 0 -165 -1 -165 -20 0 -18 7
-20 78 -20 75 0 77 -1 54 -18 -94 -73 -74 -182 33 -182 98 0 185 74 185 157 0
42 0 43 35 43 28 0 35 4 35 20 0 16 -7 20 -35 20 l-36 0 3 92 3 93 1195 0
1195 0 3 -92 3 -93 -166 0 c-158 0 -165 -1 -165 -20 0 -19 7 -20 165 -20 l165
0 0 -90 0 -90 -165 0 c-139 0 -165 -2 -165 -15 0 -12 27 -15 163 -17 l162 -3
3 -53 c3 -50 2 -53 -17 -43 -51 28 -146 5 -199 -49 -24 -24 -39 -30 -71 -30
-34 0 -41 -3 -41 -20 0 -16 7 -20 35 -20 29 0 35 -4 35 -21 0 -52 59 -87 123
-74 43 9 114 51 127 75 8 15 21 20 55 20 38 0 45 3 45 20 0 16 -7 20 -35 20
l-35 0 0 90 0 90 35 0 c24 0 35 5 35 15 0 10 -11 15 -35 15 l-35 0 0 90 0 90
35 0 c28 0 35 4 35 20 0 16 -7 20 -35 20 l-35 0 0 96 0 96 755 -4 755 -3 0
448 0 447 -495 0 -495 0 0 90 0 90 163 2 c136 3 162 5 162 18 0 13 -26 15
-162 18 l-163 2 0 49 0 48 38 -10 c53 -14 115 6 167 54 35 32 49 39 84 39 55
0 58 27 4 32 -33 3 -38 7 -41 30 -5 39 -46 68 -95 68 -51 0 -122 -34 -149 -71
-18 -24 -29 -29 -65 -29 -32 0 -43 -4 -43 -15 0 -10 11 -15 35 -15 l35 0 0
-90 0 -90 -35 0 c-28 0 -35 -4 -35 -20 0 -16 7 -20 35 -20 l35 0 0 -90 0 -90
-1155 0 -1155 0 0 90 0 90 168 2 c141 3 167 5 167 18 0 13 -26 15 -167 18
l-168 2 0 90 0 90 170 0 c143 0 170 2 170 15 0 12 -28 15 -167 17 l-168 3 0
90 0 90 168 3 c139 2 167 5 167 17 0 12 -17 15 -82 15 l-83 1 28 20 c50 38 71
104 47 149 -6 11 -27 24 -48 30 -44 12 -36 12 -91 -5z m119 -60 c0 -26 -54
-70 -124 -99 -48 -20 -70 -20 -86 -1 -11 13 -9 20 11 41 33 36 127 83 167 84
27 0 32 -3 32 -25z m2328 -323 c4 -29 -11 -34 -89 -30 l-64 3 50 27 c60 33 99
33 103 0z m-63 -71 c-4 -8 -106 -51 -120 -51 -12 0 -33 33 -29 45 5 11 24 15
81 15 43 0 72 -4 68 -9z m-4155 -247 c11 -28 13 -104 4 -128 -5 -12 -21 -16
-66 -16 l-60 0 7 33 c14 63 63 137 92 137 7 0 18 -12 23 -26z m-20 -180 c0
-14 -83 -104 -91 -98 -5 3 -9 27 -9 55 l0 49 50 0 c28 0 50 -3 50 -6z m1660
-89 l0 -95 -831 0 c-457 0 -829 3 -827 8 54 108 68 140 68 153 0 9 3 19 7 22
3 4 361 7 795 7 l788 0 0 -95z m1080 0 l0 -95 -99 0 -99 0 -7 28 c-10 50 -44
93 -88 112 -109 50 -231 -4 -254 -112 l-5 -28 -254 0 -254 0 0 95 0 95 530 0
530 0 0 -95z m1250 0 l0 -95 -610 0 -610 0 0 95 0 95 610 0 610 0 0 -95z m780
0 l0 -95 -375 0 -375 0 0 95 0 95 375 0 375 0 0 -95z m120 0 l0 -95 -40 0 -40
0 0 95 0 95 40 0 40 0 0 -95z m-2482 25 c6 0 42 -86 42 -102 0 -15 -9 -18 -49
-18 -41 0 -51 4 -56 20 -9 28 -42 43 -81 37 l-34 -6 15 29 c8 16 20 32 27 36
23 14 74 20 103 12 16 -4 31 -8 33 -8z m-748 -240 l0 -100 -852 2 -852 3 -7
35 c-20 104 -20 104 6 133 l26 27 839 0 840 0 0 -100z m548 70 c19 -24 30 -30
62 -30 37 0 80 28 80 52 0 4 23 8 51 8 l52 0 -6 -52 c-3 -29 -15 -74 -26 -101
l-20 -47 -358 2 -358 3 -3 84 c-2 46 -1 90 2 98 4 10 56 13 254 13 l248 0 22
-30z m527 -70 l0 -95 -127 -3 -127 -3 29 63 c17 35 30 77 30 94 0 17 3 34 7
38 4 4 48 5 98 4 l90 -3 0 -95z m1255 0 l0 -100 -607 2 -608 3 -3 84 c-2 46
-1 90 2 98 4 11 115 13 611 13 l605 0 0 -100z m780 0 l0 -100 -375 0 -375 0 0
100 0 100 375 0 375 0 0 -100z m118 -2 l3 -98 -41 0 -40 0 0 101 0 100 38 -3
37 -3 3 -97z m-4979 -70 c1 -28 0 -28 -59 -28 -33 0 -60 3 -60 8 0 4 23 28 52
54 l53 47 6 -27 c4 -15 7 -39 8 -54z m-56 -76 c-36 -33 -58 -74 -67 -124 -7
-36 -9 -38 -47 -38 l-39 0 6 43 c3 23 17 66 31 95 l24 52 61 0 60 0 -29 -28z
m1207 -67 l0 -95 -444 0 -443 0 -7 38 c-7 48 -41 100 -85 129 l-34 23 507 0
506 0 0 -95z m1320 85 c0 -19 -62 -79 -134 -129 l-74 -51 -546 0 -546 0 0 95
0 95 650 0 c411 0 650 -4 650 -10z m360 -85 l0 -95 -257 0 -257 0 74 49 c41
27 95 70 120 95 l44 46 138 0 138 0 0 -95z m740 0 l0 -95 -355 0 -355 0 0 88
c0 49 3 92 7 95 3 4 163 7 355 7 l348 0 0 -95z m1290 0 l0 -95 -635 0 -635 0
0 95 0 95 635 0 635 0 0 -95z m120 0 l0 -95 -40 0 -40 0 0 95 0 95 40 0 40 0
0 -95z m-4947 -57 l6 -38 -50 0 c-50 0 -57 7 -39 40 12 23 62 52 71 42 4 -4 9
-24 12 -44z m123 18 c19 -19 34 -39 34 -45 0 -7 -22 -11 -55 -11 -59 0 -54 -5
-70 73 -6 32 53 21 91 -17z m-267 -109 c12 -31 67 -77 92 -77 27 0 24 11 -11
42 -47 41 -40 58 24 58 l53 0 6 -42 c3 -24 9 -63 13 -87 l7 -44 -61 5 c-95 9
-185 72 -207 146 -6 20 -3 22 35 22 33 0 42 -4 49 -23z m306 -9 c-4 -18 -13
-44 -20 -58 -15 -29 -53 -66 -60 -58 -3 3 -12 37 -19 77 l-14 71 60 0 60 0 -7
-32z m955 -63 l0 -95 -264 0 -265 0 -3 25 c-2 14 -7 26 -13 26 -5 0 -11 -12
-13 -26 l-3 -25 -231 0 -231 0 40 29 c45 33 80 83 89 130 l7 31 443 0 444 0 0
-95z m1680 0 l0 -95 -830 0 -830 0 0 95 0 95 830 0 830 0 0 -95z m740 0 l0
-95 -355 0 -355 0 0 95 0 95 355 0 355 0 0 -95z m1290 0 l0 -95 -635 0 -635 0
0 95 0 95 635 0 635 0 0 -95z m120 0 l0 -95 -40 0 -40 0 0 95 0 95 40 0 40 0
0 -95z m-4285 -408 c0 -53 -3 -60 -38 -94 l-37 -38 0 86 c0 93 9 112 50 107
23 -3 25 -6 25 -61z m439 30 c8 -12 5 -22 -14 -43 -28 -30 -134 -84 -166 -84
-23 0 -37 21 -28 43 13 34 154 111 188 103 5 -1 14 -10 20 -19z m2420 -323
c11 -28 -4 -34 -77 -34 l-72 1 45 24 c53 28 95 32 104 9z m-64 -79 c0 -7 -59
-36 -91 -45 -34 -10 -65 9 -56 34 5 13 21 16 77 16 38 0 70 -2 70 -5z"/>
<path d="M3470 1986 c-27 -33 18 -72 48 -42 13 13 14 20 6 34 -15 23 -38 26
-54 8z"/>
<path d="M3470 1815 c-18 -21 -3 -55 25 -55 15 0 26 7 30 20 7 23 -10 50 -30
50 -7 0 -18 -7 -25 -15z"/>
<path d="M4587 2914 c-9 -9 -9 -253 0 -412 4 -84 10 -122 18 -122 22 0 95 60
122 101 34 51 38 126 9 158 -23 25 -72 28 -105 5 l-23 -16 4 142 c3 135 -3
166 -25 144z m103 -314 c19 -35 0 -100 -41 -145 l-38 -40 -1 84 c0 65 4 89 17
103 21 24 50 23 63 -2z"/>
<path d="M3810 700 c0 -290 0 -287 50 -253 73 48 120 116 120 173 0 33 -15 70
-34 82 -16 11 -64 10 -87 -2 -18 -10 -19 -6 -19 130 0 118 -2 140 -15 140 -13
0 -15 -37 -15 -270z m98 -42 c31 -31 -3 -139 -54 -173 l-22 -14 5 87 c3 48 10
93 16 100 12 15 39 16 55 0z"/>
</g>
</svg>
