<?xml version="1.0" standalone="no"?>
<!DOCTYPE svg PUBLIC "-//W3C//DTD SVG 20010904//EN"
 "http://www.w3.org/TR/2001/REC-SVG-20010904/DTD/svg10.dtd">
<svg version="1.0" xmlns="http://www.w3.org/2000/svg"
 width="595.000000pt" height="435.000000pt" viewBox="0 0 595.000000 435.000000"
 preserveAspectRatio="xMidYMid meet">

<g transform="translate(0.000000,435.000000) scale(0.100000,-0.100000)"
fill="#000000" stroke="none">
<path d="M1797 4084 c-14 -15 -6 -34 14 -34 14 0 19 5 17 17 -3 18 -20 27 -31
17z"/>
<path d="M4791 4081 c-11 -7 -9 -10 10 -13 22 -3 24 -8 27 -60 l3 -57 -32 16
c-28 14 -34 14 -64 0 -84 -40 -62 -197 27 -197 17 0 40 7 50 17 17 15 18 15
18 0 0 -13 9 -17 35 -17 19 0 35 5 35 10 0 6 -6 10 -14 10 -22 0 -26 24 -26
166 l0 134 -27 0 c-16 0 -34 -4 -42 -9z m13 -136 c36 -37 30 -125 -12 -153
-19 -13 -23 -11 -47 12 -27 27 -32 66 -14 113 17 44 45 55 73 28z"/>
<path d="M1947 4043 c-5 -18 -19 -41 -33 -52 -23 -18 -23 -19 -4 -24 18 -5 20
-14 20 -84 0 -87 8 -103 51 -103 31 0 60 32 58 65 0 15 -4 12 -15 -12 -15 -35
-47 -45 -58 -17 -3 9 -6 46 -6 84 l0 69 38 4 37 4 -37 1 c-37 2 -37 2 -40 50
-3 46 -3 46 -11 15z"/>
<path d="M2107 4043 c-5 -18 -19 -41 -33 -52 -23 -18 -23 -19 -4 -24 18 -5 20
-14 20 -84 0 -87 8 -103 51 -103 31 0 60 32 58 65 0 15 -4 12 -15 -12 -15 -35
-47 -45 -58 -17 -3 9 -6 46 -6 84 l0 69 38 4 37 4 -37 1 c-37 2 -37 2 -40 50
-3 46 -3 46 -11 15z"/>
<path d="M1649 3959 l-29 -31 0 26 c0 23 -4 26 -35 26 -19 0 -35 -4 -35 -10 0
-5 9 -10 20 -10 18 0 20 -7 20 -78 0 -72 -2 -80 -22 -90 -20 -9 -14 -11 36
-11 57 -1 58 -1 36 17 -21 17 -21 21 -11 77 10 53 33 95 51 95 4 0 7 -8 6 -17
-1 -23 32 -29 41 -7 4 11 -1 22 -12 30 -27 20 -33 18 -66 -17z"/>
<path d="M2281 3976 c-48 -27 -65 -99 -36 -155 16 -32 33 -41 76 -41 38 0 65
14 80 43 l12 22 -24 -21 c-40 -36 -65 -39 -94 -10 -14 14 -25 34 -25 46 0 18
6 20 70 20 57 0 70 3 70 15 0 29 -31 76 -56 85 -33 13 -44 12 -73 -4z m81 -30
c18 -40 5 -56 -47 -56 -36 0 -45 3 -45 18 0 55 70 84 92 38z"/>
<path d="M2553 3978 c-13 -6 -23 -15 -23 -20 0 -4 -4 -8 -10 -8 -5 0 -10 7
-10 15 0 17 -55 21 -65 5 -3 -5 3 -10 14 -10 19 0 21 -6 21 -80 0 -74 -2 -81
-22 -90 -18 -7 -9 -9 37 -9 57 -1 58 0 37 15 -16 11 -22 25 -21 52 1 84 43
138 85 108 13 -10 19 -31 22 -78 4 -59 2 -67 -19 -82 -23 -16 -22 -16 36 -15
51 0 56 2 38 11 -21 10 -23 18 -23 83 0 41 -5 78 -12 88 -17 21 -58 29 -85 15z"/>
<path d="M1212 3968 c9 -7 30 -52 48 -100 18 -49 36 -88 40 -88 5 0 19 29 32
65 12 36 25 65 28 65 3 0 16 -29 28 -65 13 -36 27 -65 31 -65 4 0 22 39 40 88
18 48 40 93 49 100 13 10 9 12 -29 11 -24 -1 -36 -3 -26 -6 9 -2 17 -10 17
-17 0 -19 -31 -105 -40 -111 -4 -2 -17 21 -29 53 -19 53 -20 58 -4 70 14 10 9
12 -32 12 -44 0 -47 -1 -30 -14 19 -14 19 -15 1 -70 -11 -31 -23 -53 -27 -49
-4 4 -17 31 -28 60 -19 49 -19 53 -3 62 13 8 6 10 -32 11 -42 0 -47 -2 -34
-12z"/>
<path d="M1750 3970 c0 -5 9 -10 20 -10 18 0 20 -7 20 -80 0 -65 -3 -81 -17
-89 -14 -8 -5 -10 37 -10 42 0 51 2 38 10 -15 8 -18 25 -18 99 l0 90 -40 0
c-22 0 -40 -4 -40 -10z"/>
<path d="M3760 3967 c-28 -14 -39 -59 -19 -83 6 -8 31 -19 55 -25 48 -12 69
-31 60 -54 -15 -40 -78 -29 -106 18 l-20 32 0 -44 c0 -36 2 -42 14 -32 10 8
16 9 21 1 11 -17 80 -12 98 8 21 22 22 65 3 81 -7 6 -37 18 -65 27 -44 13 -52
18 -49 37 5 34 60 36 86 3 27 -35 32 -33 32 10 0 30 -3 34 -14 25 -10 -8 -21
-8 -40 -1 -33 12 -26 12 -56 -3z"/>
<path d="M3971 3966 c-85 -47 -57 -196 38 -196 94 0 125 151 40 195 -34 18
-47 18 -78 1z m73 -28 c35 -49 11 -158 -34 -158 -10 0 -26 10 -34 22 -18 26
-21 109 -6 139 14 26 55 24 74 -3z"/>
<path d="M4513 3968 c-13 -6 -23 -15 -23 -20 0 -4 -4 -8 -10 -8 -5 0 -10 7
-10 15 0 17 -55 21 -65 5 -3 -5 3 -10 14 -10 19 0 21 -6 21 -80 0 -74 -2 -81
-22 -90 -18 -7 -9 -9 37 -9 57 -1 58 0 37 15 -16 11 -22 25 -21 52 1 84 43
138 85 108 13 -10 19 -31 22 -78 4 -59 2 -67 -19 -82 -23 -16 -22 -16 36 -15
51 0 56 2 38 11 -21 10 -23 18 -23 83 0 41 -5 78 -12 88 -17 21 -58 29 -85 15z"/>
<path d="M4970 3967 c-28 -14 -39 -59 -19 -83 6 -8 31 -19 55 -25 48 -12 69
-31 60 -54 -15 -40 -78 -29 -106 18 l-20 32 0 -44 c0 -36 2 -42 14 -32 10 8
16 9 21 1 11 -17 80 -12 98 8 21 22 22 65 3 81 -7 6 -37 18 -65 27 -44 13 -52
18 -49 37 5 34 60 36 86 3 27 -35 32 -33 32 10 0 30 -3 34 -14 25 -10 -8 -21
-8 -40 -1 -33 12 -26 12 -56 -3z"/>
<path d="M4130 3961 c0 -5 9 -11 20 -14 18 -5 20 -14 20 -79 0 -44 5 -79 12
-86 17 -17 78 -15 100 5 17 15 18 15 18 0 0 -13 9 -17 40 -17 22 0 40 5 40 10
0 6 -9 10 -20 10 -19 0 -20 7 -20 90 l0 90 -40 0 c-22 0 -40 -4 -40 -10 0 -5
9 -10 20 -10 18 0 20 -7 20 -58 0 -66 -19 -102 -54 -102 -37 0 -46 19 -46 102
l0 78 -35 0 c-19 0 -35 -4 -35 -9z"/>
<path d="M2463 3180 c-85 -20 -143 -84 -143 -156 0 -44 0 -44 -35 -44 -46 0
-49 -27 -2 -32 l32 -3 0 -90 0 -90 -32 -3 c-47 -5 -44 -32 2 -32 l35 0 0 -90
0 -90 -35 0 c-28 0 -35 -4 -35 -20 0 -16 7 -20 35 -20 l35 0 0 -90 0 -90 -750
0 -750 0 0 58 c0 92 -47 221 -85 236 -22 8 -85 -52 -107 -100 -10 -23 -23 -76
-29 -118 l-11 -76 -194 0 c-166 0 -194 -2 -194 -15 0 -13 28 -15 194 -15 220
0 199 9 211 -93 11 -96 9 -97 -217 -97 -119 0 -188 -4 -188 -10 0 -6 63 -10
170 -10 94 0 170 -4 170 -8 0 -4 -19 -26 -41 -47 -23 -22 -57 -64 -76 -92
l-34 -53 -94 0 c-57 0 -95 -4 -95 -10 0 -6 37 -10 91 -10 90 0 91 0 84 -22 -3
-13 -9 -56 -12 -95 l-6 -73 -78 0 c-64 0 -79 -3 -79 -15 0 -12 16 -15 85 -15
l85 0 20 -40 c25 -49 79 -104 128 -129 l37 -20 -177 -1 c-112 0 -178 -4 -178
-10 0 -6 95 -10 264 -10 217 0 265 -2 269 -14 3 -8 11 -50 17 -93 13 -89 4
-148 -29 -177 -26 -24 -97 -39 -119 -26 -16 9 -16 9 0 10 26 0 58 49 58 87 0
48 -16 72 -57 89 -71 30 -133 -16 -133 -100 0 -84 70 -133 177 -124 62 5 100
29 126 79 16 29 18 49 13 129 -3 52 -9 105 -12 118 l-6 22 471 0 471 0 0 -95
0 -95 -166 0 c-152 0 -165 -1 -162 -18 3 -15 20 -17 166 -20 l162 -2 0 -49 0
-48 -39 10 c-54 15 -112 -4 -166 -54 -35 -32 -49 -39 -84 -39 -55 0 -58 -27
-3 -32 32 -3 37 -7 40 -30 10 -86 150 -90 233 -7 32 32 46 39 79 39 29 0 40 4
40 15 0 10 -11 15 -35 15 l-35 0 0 90 0 90 35 0 c28 0 35 4 35 20 0 16 -7 20
-35 20 l-35 0 0 95 0 95 1195 0 1195 0 0 -95 0 -95 -165 0 c-158 0 -165 -1
-165 -20 0 -19 7 -20 165 -20 l165 0 0 -90 0 -90 -165 0 c-140 0 -165 -2 -165
-15 0 -13 25 -15 165 -15 l165 0 0 -90 0 -90 -165 0 c-158 0 -165 -1 -165 -20
0 -19 7 -20 165 -20 l165 0 0 -90 0 -90 -165 0 c-158 0 -165 -1 -165 -20 0
-19 7 -20 165 -20 l165 0 0 -50 c0 -49 0 -49 -26 -40 -14 6 -37 10 -52 10 -40
0 -128 -45 -147 -74 -14 -21 -25 -26 -61 -26 -32 0 -44 -4 -44 -15 0 -10 11
-15 35 -15 29 0 35 -4 35 -21 0 -11 13 -34 29 -50 22 -22 39 -29 68 -29 49 1
111 29 148 68 24 26 38 32 72 32 32 0 43 4 43 15 0 11 -11 15 -39 15 l-39 0
-1 89 -2 90 38 3 c52 4 52 32 1 36 l-38 3 0 89 0 89 38 3 c51 4 51 32 -1 36
l-38 3 3 87 3 87 38 3 c53 5 51 32 -3 32 l-40 0 0 89 0 90 38 3 c51 4 51 32
-1 36 l-38 3 3 92 3 92 753 1 753 0 0 445 1 444 -366 3 -366 2 0 23 c0 28 -35
63 -73 72 -44 11 -115 -14 -160 -57 -30 -28 -49 -38 -74 -38 -32 0 -33 1 -33
39 0 31 -6 44 -26 60 -31 25 -49 26 -86 7 l-27 -15 -3 142 c-4 211 -22 177
-26 -48 l-2 -185 -1040 0 -1040 0 0 90 0 90 165 0 c158 0 165 1 165 20 0 19
-7 20 -165 20 l-165 0 0 90 0 90 165 0 c140 0 165 2 165 15 0 13 -25 15 -165
15 l-165 0 0 95 0 95 165 0 c140 0 165 2 165 15 0 12 -15 15 -77 15 l-77 0 37
38 c63 64 59 130 -8 158 -38 15 -36 15 -82 4z m104 -56 c8 -22 -33 -61 -100
-96 -67 -33 -110 -34 -115 -2 -8 55 195 149 215 98z m-1807 -650 c11 -28 13
-104 4 -128 -5 -12 -21 -16 -66 -16 l-60 0 7 33 c14 63 63 137 92 137 7 0 18
-12 23 -26z m3768 -111 c3 -32 2 -33 -37 -33 -36 0 -41 3 -41 23 0 31 19 48
50 45 20 -2 26 -9 28 -35z m362 12 c7 -8 10 -22 6 -30 -4 -12 -22 -15 -83 -14
l-78 1 60 29 c69 33 78 35 95 14z m-4150 -81 c0 -14 -83 -104 -91 -98 -5 3 -9
27 -9 55 l0 49 50 0 c28 0 50 -3 50 -6z m1580 -89 l0 -95 -791 0 c-435 0 -789
3 -787 8 54 108 68 140 68 153 0 9 3 19 7 22 3 4 343 7 755 7 l748 0 0 -95z
m1070 0 l0 -96 -96 3 -96 3 -14 40 c-28 82 -115 128 -209 111 -59 -11 -125
-82 -125 -136 0 -20 -5 -20 -255 -20 l-255 0 0 95 0 95 525 0 525 0 0 -95z
m1030 31 c0 -36 5 -68 10 -71 16 -10 102 56 129 98 20 30 30 37 58 37 l33 0 0
-95 0 -95 -610 0 -610 0 0 95 0 95 495 0 495 0 0 -64z m100 54 c0 -6 -16 -27
-35 -48 l-34 -37 -1 48 0 47 35 0 c19 0 35 -5 35 -10z m320 5 c0 -10 -104 -55
-128 -55 -24 0 -38 21 -28 45 4 11 23 15 81 15 41 0 75 -2 75 -5z m580 -90 l0
-95 -375 0 -375 0 0 55 c0 52 1 55 19 45 52 -28 158 3 202 58 l24 31 253 0
252 1 0 -95z m120 0 l0 -95 -40 0 -40 0 0 95 0 95 40 0 40 0 0 -95z m-2471 11
c11 -11 24 -40 29 -63 l10 -43 -54 0 c-39 0 -54 4 -54 13 0 27 -37 49 -75 45
-41 -5 -43 1 -12 37 39 46 118 51 156 11z m-751 -229 l3 -97 -813 2 -812 3 -7
35 c-20 104 -20 104 6 133 l26 27 797 -2 797 -3 3 -98z m532 95 c0 -5 9 -18
20 -30 32 -34 85 -30 121 9 24 26 34 30 71 27 l43 -3 -3 -43 c-1 -23 -12 -67
-23 -97 l-20 -55 -360 0 -359 0 0 100 0 100 255 0 c140 0 255 -4 255 -8z m540
-92 l0 -100 -125 0 c-69 0 -125 2 -125 5 0 3 11 28 25 55 14 28 28 70 32 95
l6 45 93 0 94 0 0 -100z m1258 -2 l3 -98 -611 0 -610 0 0 100 0 100 608 -2
607 -3 3 -97z m772 2 l0 -100 -375 0 -375 0 0 100 0 100 375 0 375 0 0 -100z
m120 -1 l0 -100 -37 3 -38 3 -3 84 c-2 46 -1 90 2 98 3 7 20 13 41 13 l35 0 0
-101z m-4891 -71 c1 -28 0 -28 -59 -28 -33 0 -60 3 -60 8 0 4 23 28 52 54 l53
47 6 -27 c4 -15 7 -39 8 -54z m-56 -76 c-36 -33 -58 -74 -67 -124 -7 -36 -9
-38 -47 -38 l-39 0 6 43 c3 23 17 66 31 95 l24 52 61 0 60 0 -29 -28z m1117
-67 l0 -95 -399 0 -398 0 -7 38 c-7 48 -41 100 -85 129 l-34 23 462 0 461 0 0
-95z m1320 76 c-17 -33 -73 -83 -142 -128 l-67 -43 -540 0 -541 0 0 95 0 95
650 0 c637 0 650 0 640 -19z m360 -76 l0 -95 -257 0 -258 0 64 38 c35 20 89
62 120 93 l56 56 138 2 137 1 0 -95z m740 0 l0 -95 -350 0 -350 0 0 95 0 95
350 0 350 0 0 -95z m520 0 l0 -95 -250 0 -250 0 0 95 0 95 250 0 250 0 0 -95z
m770 0 l0 -95 -375 0 -375 0 0 95 0 95 375 0 375 0 0 -95z m120 0 l0 -95 -40
0 -40 0 0 95 0 95 40 0 40 0 0 -95z m-4857 -57 l6 -38 -50 0 c-50 0 -57 7 -39
40 12 23 62 52 71 42 4 -4 9 -24 12 -44z m123 18 c19 -19 34 -39 34 -45 0 -7
-22 -11 -55 -11 -59 0 -54 -5 -70 73 -6 32 53 21 91 -17z m-267 -109 c12 -31
67 -77 92 -77 27 0 24 11 -11 42 -47 41 -40 58 24 58 l53 0 6 -42 c3 -24 9
-63 13 -87 l7 -44 -61 5 c-95 9 -185 72 -207 146 -6 20 -3 22 35 22 33 0 42
-4 49 -23z m306 -9 c-4 -18 -13 -44 -20 -58 -15 -29 -53 -66 -60 -58 -3 3 -12
37 -19 77 l-14 71 60 0 60 0 -7 -32z m865 -63 l0 -95 -467 0 -466 0 40 29 c45
33 80 83 89 130 l7 31 398 0 399 0 0 -95z m1680 0 l0 -95 -825 0 -825 0 0 95
0 95 825 0 825 0 0 -95z m740 0 l0 -95 -350 0 -350 0 0 95 0 95 350 0 350 0 0
-95z m520 50 c0 -25 5 -45 10 -45 6 0 10 20 10 45 l0 45 375 0 375 0 0 -95 0
-95 -635 0 -635 0 0 95 0 95 250 0 250 0 0 -45z m890 -50 l0 -95 -40 0 -40 0
0 95 0 95 40 0 40 0 0 -95z m-3841 -484 c17 -31 -9 -42 -86 -39 l-68 3 55 27
c65 33 86 35 99 9z m-104 -102 c-67 -32 -93 -36 -101 -14 -14 36 3 45 83 44
l78 -1 -60 -29z m2509 -535 c20 -7 21 -43 2 -50 -7 -3 -42 -4 -77 -2 l-64 3
55 27 c60 30 61 31 84 22z m-44 -89 c0 -9 -103 -55 -121 -55 -9 0 -22 7 -29
15 -24 29 5 45 81 45 38 0 69 -2 69 -5z"/>
<path d="M3242 2211 c-8 -4 -12 -19 -10 -32 2 -18 9 -24 28 -24 19 0 26 6 28
24 3 20 -11 41 -28 41 -3 0 -11 -4 -18 -9z"/>
<path d="M3240 2035 c-19 -23 -8 -50 20 -50 16 0 26 6 28 18 4 18 -14 47 -28
47 -4 0 -13 -7 -20 -15z"/>
<path d="M3577 754 c-10 -11 -8 -517 2 -533 7 -11 18 -7 55 18 86 59 127 141
105 209 -17 51 -59 65 -113 37 l-28 -15 3 142 c4 133 -2 164 -24 142z m87
-300 c12 -5 16 -20 16 -60 0 -50 -3 -58 -40 -97 l-39 -42 -1 87 c0 79 2 88 22
102 26 19 22 18 42 10z"/>
</g>
</svg>
