<svg width="89" height="89" viewBox="0 0 89 89" fill="none" xmlns="http://www.w3.org/2000/svg">
<g filter="url(#filter0_f_1_189)">
<path d="M26.7956 68.8276C25.2224 68.8276 24.0299 68.4216 23.2179 67.6097C22.406 66.8485 22 65.8336 22 64.5649C22 63.1947 22.3806 61.926 23.1418 60.7589C23.9538 59.5409 24.9941 58.5767 26.2627 57.8663C27.5314 57.1558 28.8508 56.8006 30.221 56.8006C30.83 56.8006 31.4389 56.8767 32.0479 57.0289V57.0289C32.9794 57.1723 33.9509 56.5232 33.9509 55.5807V26.2021C33.9509 24.4986 35.1046 23.0114 36.7546 22.5879L57.7609 17.1959C60.1216 16.59 62.42 18.3729 62.42 20.8101V54.7453C62.42 56.9275 61.9379 58.8558 60.9737 60.5305C60.0602 62.1544 58.8423 63.4484 57.3199 64.4126C55.8482 65.3261 54.2243 65.7828 52.4482 65.7828C50.875 65.7828 49.6825 65.4022 48.8705 64.641C48.0586 63.829 47.6526 62.7887 47.6526 61.5201C47.6526 60.1499 48.0332 58.8812 48.7944 57.714C49.6064 56.4961 50.6467 55.5319 51.9154 54.8215C53.184 54.111 54.5035 53.7558 55.8736 53.7558C56.4826 53.7558 57.0915 53.8319 57.7005 53.9841V53.9841C58.632 54.1274 59.6035 53.4783 59.6035 52.5359V26.7452C59.6035 24.2786 57.2528 22.4907 54.8757 23.1494L39.5023 27.4095C37.8862 27.8573 36.7674 29.3283 36.7674 31.0053V57.7902C36.7674 59.9723 36.2853 61.9007 35.3211 63.5753C34.4076 65.1992 33.1897 66.4679 31.6673 67.3813C30.1956 68.3455 28.5717 68.8276 26.7956 68.8276Z" stroke="#FDBD01" stroke-width="2.98507"/>
</g>
<g filter="url(#filter1_f_1_189)">
<path d="M26.7956 68.8276C25.2224 68.8276 24.0299 68.4216 23.2179 67.6097C22.406 66.8485 22 65.8336 22 64.5649C22 63.1947 22.3806 61.926 23.1418 60.7589C23.9538 59.5409 24.9941 58.5767 26.2627 57.8663C27.5314 57.1558 28.8508 56.8006 30.221 56.8006C30.83 56.8006 31.4389 56.8767 32.0479 57.0289V57.0289C32.9794 57.1723 33.9509 56.5232 33.9509 55.5807V26.2021C33.9509 24.4986 35.1046 23.0114 36.7546 22.5879L57.7609 17.1959C60.1216 16.59 62.42 18.3729 62.42 20.8101V54.7453C62.42 56.9275 61.9379 58.8558 60.9737 60.5305C60.0602 62.1544 58.8423 63.4484 57.3199 64.4126C55.8482 65.3261 54.2243 65.7828 52.4482 65.7828C50.875 65.7828 49.6825 65.4022 48.8705 64.641C48.0586 63.829 47.6526 62.7887 47.6526 61.5201C47.6526 60.1499 48.0332 58.8812 48.7944 57.714C49.6064 56.4961 50.6467 55.5319 51.9154 54.8215C53.184 54.111 54.5035 53.7558 55.8736 53.7558C56.4826 53.7558 57.0915 53.8319 57.7005 53.9841V53.9841C58.632 54.1274 59.6035 53.4783 59.6035 52.5359V26.7452C59.6035 24.2786 57.2528 22.4907 54.8757 23.1494L39.5023 27.4095C37.8862 27.8573 36.7674 29.3283 36.7674 31.0053V57.7902C36.7674 59.9723 36.2853 61.9007 35.3211 63.5753C34.4076 65.1992 33.1897 66.4679 31.6673 67.3813C30.1956 68.3455 28.5717 68.8276 26.7956 68.8276Z" stroke="#FFF01F" stroke-width="2.23881"/>
</g>
<g filter="url(#filter2_f_1_189)">
<path d="M26.7956 68.8276C25.2224 68.8276 24.0299 68.4216 23.2179 67.6097C22.406 66.8485 22 65.8336 22 64.5649C22 63.1947 22.3806 61.926 23.1418 60.7589C23.9538 59.5409 24.9941 58.5767 26.2627 57.8663C27.5314 57.1558 28.8508 56.8006 30.221 56.8006C30.83 56.8006 31.4389 56.8767 32.0479 57.0289V57.0289C32.9794 57.1723 33.9509 56.5232 33.9509 55.5807V26.2021C33.9509 24.4986 35.1046 23.0114 36.7546 22.5879L57.7609 17.1959C60.1216 16.59 62.42 18.3729 62.42 20.8101V54.7453C62.42 56.9275 61.9379 58.8558 60.9737 60.5305C60.0602 62.1544 58.8423 63.4484 57.3199 64.4126C55.8482 65.3261 54.2243 65.7828 52.4482 65.7828C50.875 65.7828 49.6825 65.4022 48.8705 64.641C48.0586 63.829 47.6526 62.7887 47.6526 61.5201C47.6526 60.1499 48.0332 58.8812 48.7944 57.714C49.6064 56.4961 50.6467 55.5319 51.9154 54.8215C53.184 54.111 54.5035 53.7558 55.8736 53.7558C56.4826 53.7558 57.0915 53.8319 57.7005 53.9841V53.9841C58.632 54.1274 59.6035 53.4783 59.6035 52.5359V26.7452C59.6035 24.2786 57.2528 22.4907 54.8757 23.1494L39.5023 27.4095C37.8862 27.8573 36.7674 29.3283 36.7674 31.0053V57.7902C36.7674 59.9723 36.2853 61.9007 35.3211 63.5753C34.4076 65.1992 33.1897 66.4679 31.6673 67.3813C30.1956 68.3455 28.5717 68.8276 26.7956 68.8276Z" stroke="#F0F0F0" stroke-width="0.746269"/>
</g>
<defs>
<filter id="filter0_f_1_189" x="17.5224" y="12.5985" width="49.3752" height="60.7068" filterUnits="userSpaceOnUse" color-interpolation-filters="sRGB">
<feFlood flood-opacity="0" result="BackgroundImageFix"/>
<feBlend mode="normal" in="SourceGraphic" in2="BackgroundImageFix" result="shape"/>
<feGaussianBlur stdDeviation="1.49254" result="effect1_foregroundBlur_1_189"/>
</filter>
<filter id="filter1_f_1_189" x="18.2687" y="13.3449" width="47.8826" height="59.2141" filterUnits="userSpaceOnUse" color-interpolation-filters="sRGB">
<feFlood flood-opacity="0" result="BackgroundImageFix"/>
<feBlend mode="normal" in="SourceGraphic" in2="BackgroundImageFix" result="shape"/>
<feGaussianBlur stdDeviation="1.30597" result="effect1_foregroundBlur_1_189"/>
</filter>
<filter id="filter2_f_1_189" x="20.8806" y="15.9572" width="42.6587" height="53.9898" filterUnits="userSpaceOnUse" color-interpolation-filters="sRGB">
<feFlood flood-opacity="0" result="BackgroundImageFix"/>
<feBlend mode="normal" in="SourceGraphic" in2="BackgroundImageFix" result="shape"/>
<feGaussianBlur stdDeviation="0.373134" result="effect1_foregroundBlur_1_189"/>
</filter>
</defs>
</svg>
